<mxfile>
    <diagram id="ge3BBiXm2OZ-S2fLAWXN" name="Page-1">
        <mxGraphModel dx="650" dy="478" grid="1" gridSize="10" guides="1" tooltips="1" connect="1" arrows="1" fold="1" page="1" pageScale="1" pageWidth="827" pageHeight="1169" math="0" shadow="0">
            <root>
                <mxCell id="0"/>
                <mxCell id="1" parent="0"/>
                <mxCell id="124" value="Member" style="swimlane;fontStyle=0;childLayout=stackLayout;horizontal=1;startSize=26;fillColor=none;horizontalStack=0;resizeParent=1;resizeParentMax=0;resizeLast=0;collapsible=1;marginBottom=0;" parent="1" vertex="1">
                    <mxGeometry x="30" y="20" width="100" height="174" as="geometry"/>
                </mxCell>
                <mxCell id="125" value="ID_member" style="text;strokeColor=none;fillColor=none;align=left;verticalAlign=top;spacingLeft=4;spacingRight=4;overflow=hidden;rotatable=0;points=[[0,0.5],[1,0.5]];portConstraint=eastwest;" parent="124" vertex="1">
                    <mxGeometry y="26" width="100" height="26" as="geometry"/>
                </mxCell>
                <mxCell id="126" value="FirstName" style="text;strokeColor=none;fillColor=none;align=left;verticalAlign=top;spacingLeft=4;spacingRight=4;overflow=hidden;rotatable=0;points=[[0,0.5],[1,0.5]];portConstraint=eastwest;" parent="124" vertex="1">
                    <mxGeometry y="52" width="100" height="26" as="geometry"/>
                </mxCell>
                <mxCell id="127" value="LastName" style="text;strokeColor=none;fillColor=none;align=left;verticalAlign=top;spacingLeft=4;spacingRight=4;overflow=hidden;rotatable=0;points=[[0,0.5],[1,0.5]];portConstraint=eastwest;" parent="124" vertex="1">
                    <mxGeometry y="78" width="100" height="24" as="geometry"/>
                </mxCell>
                <mxCell id="128" value="Adress" style="text;strokeColor=none;fillColor=none;align=left;verticalAlign=top;spacingLeft=4;spacingRight=4;overflow=hidden;rotatable=0;points=[[0,0.5],[1,0.5]];portConstraint=eastwest;" parent="124" vertex="1">
                    <mxGeometry y="102" width="100" height="24" as="geometry"/>
                </mxCell>
                <mxCell id="129" value=" Date of birth" style="text;strokeColor=none;fillColor=none;align=left;verticalAlign=top;spacingLeft=4;spacingRight=4;overflow=hidden;rotatable=0;points=[[0,0.5],[1,0.5]];portConstraint=eastwest;" parent="124" vertex="1">
                    <mxGeometry y="126" width="100" height="24" as="geometry"/>
                </mxCell>
                <mxCell id="130" value="Gender" style="text;strokeColor=none;fillColor=none;align=left;verticalAlign=top;spacingLeft=4;spacingRight=4;overflow=hidden;rotatable=0;points=[[0,0.5],[1,0.5]];portConstraint=eastwest;" parent="124" vertex="1">
                    <mxGeometry y="150" width="100" height="24" as="geometry"/>
                </mxCell>
                <mxCell id="131" value="Gymnasiums" style="swimlane;fontStyle=0;childLayout=stackLayout;horizontal=1;startSize=26;fillColor=none;horizontalStack=0;resizeParent=1;resizeParentMax=0;resizeLast=0;collapsible=1;marginBottom=0;" parent="1" vertex="1">
                    <mxGeometry x="30" y="294" width="110" height="130" as="geometry"/>
                </mxCell>
                <mxCell id="132" value="Id_GYM" style="text;strokeColor=none;fillColor=none;align=left;verticalAlign=top;spacingLeft=4;spacingRight=4;overflow=hidden;rotatable=0;points=[[0,0.5],[1,0.5]];portConstraint=eastwest;" parent="131" vertex="1">
                    <mxGeometry y="26" width="110" height="26" as="geometry"/>
                </mxCell>
                <mxCell id="133" value="Name" style="text;strokeColor=none;fillColor=none;align=left;verticalAlign=top;spacingLeft=4;spacingRight=4;overflow=hidden;rotatable=0;points=[[0,0.5],[1,0.5]];portConstraint=eastwest;" parent="131" vertex="1">
                    <mxGeometry y="52" width="110" height="26" as="geometry"/>
                </mxCell>
                <mxCell id="134" value="Adress" style="text;strokeColor=none;fillColor=none;align=left;verticalAlign=top;spacingLeft=4;spacingRight=4;overflow=hidden;rotatable=0;points=[[0,0.5],[1,0.5]];portConstraint=eastwest;" parent="131" vertex="1">
                    <mxGeometry y="78" width="110" height="26" as="geometry"/>
                </mxCell>
                <mxCell id="135" value=" Telephone number" style="text;strokeColor=none;fillColor=none;align=left;verticalAlign=top;spacingLeft=4;spacingRight=4;overflow=hidden;rotatable=0;points=[[0,0.5],[1,0.5]];portConstraint=eastwest;" parent="131" vertex="1">
                    <mxGeometry y="104" width="110" height="26" as="geometry"/>
                </mxCell>
                <mxCell id="137" value="coache" style="swimlane;fontStyle=0;childLayout=stackLayout;horizontal=1;startSize=26;fillColor=none;horizontalStack=0;resizeParent=1;resizeParentMax=0;resizeLast=0;collapsible=1;marginBottom=0;" parent="1" vertex="1">
                    <mxGeometry x="410" y="302" width="130" height="156" as="geometry"/>
                </mxCell>
                <mxCell id="138" value="Id_coache" style="text;strokeColor=none;fillColor=none;align=left;verticalAlign=top;spacingLeft=4;spacingRight=4;overflow=hidden;rotatable=0;points=[[0,0.5],[1,0.5]];portConstraint=eastwest;" parent="137" vertex="1">
                    <mxGeometry y="26" width="130" height="26" as="geometry"/>
                </mxCell>
                <mxCell id="139" value="first name" style="text;strokeColor=none;fillColor=none;align=left;verticalAlign=top;spacingLeft=4;spacingRight=4;overflow=hidden;rotatable=0;points=[[0,0.5],[1,0.5]];portConstraint=eastwest;" parent="137" vertex="1">
                    <mxGeometry y="52" width="130" height="26" as="geometry"/>
                </mxCell>
                <mxCell id="140" value="LastName" style="text;strokeColor=none;fillColor=none;align=left;verticalAlign=top;spacingLeft=4;spacingRight=4;overflow=hidden;rotatable=0;points=[[0,0.5],[1,0.5]];portConstraint=eastwest;" parent="137" vertex="1">
                    <mxGeometry y="78" width="130" height="26" as="geometry"/>
                </mxCell>
                <mxCell id="141" value="age" style="text;strokeColor=none;fillColor=none;align=left;verticalAlign=top;spacingLeft=4;spacingRight=4;overflow=hidden;rotatable=0;points=[[0,0.5],[1,0.5]];portConstraint=eastwest;" parent="137" vertex="1">
                    <mxGeometry y="104" width="130" height="26" as="geometry"/>
                </mxCell>
                <mxCell id="142" value="specialty" style="text;strokeColor=none;fillColor=none;align=left;verticalAlign=top;spacingLeft=4;spacingRight=4;overflow=hidden;rotatable=0;points=[[0,0.5],[1,0.5]];portConstraint=eastwest;" parent="137" vertex="1">
                    <mxGeometry y="130" width="130" height="26" as="geometry"/>
                </mxCell>
                <mxCell id="148" value="Session" style="swimlane;fontStyle=0;childLayout=stackLayout;horizontal=1;startSize=26;fillColor=none;horizontalStack=0;resizeParent=1;resizeParentMax=0;resizeLast=0;collapsible=1;marginBottom=0;" parent="1" vertex="1">
                    <mxGeometry x="220" y="130" width="140" height="104" as="geometry"/>
                </mxCell>
                <mxCell id="149" value="id_session" style="text;strokeColor=none;fillColor=none;align=left;verticalAlign=top;spacingLeft=4;spacingRight=4;overflow=hidden;rotatable=0;points=[[0,0.5],[1,0.5]];portConstraint=eastwest;" parent="148" vertex="1">
                    <mxGeometry y="26" width="140" height="26" as="geometry"/>
                </mxCell>
                <mxCell id="150" value="type of sport" style="text;strokeColor=none;fillColor=none;align=left;verticalAlign=top;spacingLeft=4;spacingRight=4;overflow=hidden;rotatable=0;points=[[0,0.5],[1,0.5]];portConstraint=eastwest;" parent="148" vertex="1">
                    <mxGeometry y="52" width="140" height="26" as="geometry"/>
                </mxCell>
                <mxCell id="151" value=" schedule" style="text;strokeColor=none;fillColor=none;align=left;verticalAlign=top;spacingLeft=4;spacingRight=4;overflow=hidden;rotatable=0;points=[[0,0.5],[1,0.5]];portConstraint=eastwest;" parent="148" vertex="1">
                    <mxGeometry y="78" width="140" height="26" as="geometry"/>
                </mxCell>
                <mxCell id="153" style="edgeStyle=orthogonalEdgeStyle;rounded=0;orthogonalLoop=1;jettySize=auto;html=1;" parent="1" source="125" edge="1">
                    <mxGeometry relative="1" as="geometry">
                        <mxPoint x="250" y="130" as="targetPoint"/>
                        <Array as="points">
                            <mxPoint x="250" y="59"/>
                            <mxPoint x="250" y="130"/>
                        </Array>
                    </mxGeometry>
                </mxCell>
                <mxCell id="154" value="participer" style="text;html=1;strokeColor=none;fillColor=none;align=center;verticalAlign=middle;whiteSpace=wrap;rounded=0;" parent="1" vertex="1">
                    <mxGeometry x="200" y="78" width="40" height="20" as="geometry"/>
                </mxCell>
                <mxCell id="155" value="&lt;span style=&quot;color: rgb(15 , 15 , 25) ; font-family: &amp;#34;montserrat&amp;#34; ; font-size: 14px ; text-align: left ; background-color: rgb(255 , 255 , 255)&quot;&gt;led&lt;/span&gt;" style="text;html=1;strokeColor=none;fillColor=none;align=center;verticalAlign=middle;whiteSpace=wrap;rounded=0;" parent="1" vertex="1">
                    <mxGeometry x="490" y="220" width="40" height="20" as="geometry"/>
                </mxCell>
                <mxCell id="157" style="edgeStyle=orthogonalEdgeStyle;rounded=0;orthogonalLoop=1;jettySize=auto;html=1;entryX=0.75;entryY=0;entryDx=0;entryDy=0;" parent="1" target="131" edge="1">
                    <mxGeometry relative="1" as="geometry">
                        <mxPoint x="220" y="227" as="sourcePoint"/>
                    </mxGeometry>
                </mxCell>
                <mxCell id="158" value="exist" style="text;html=1;strokeColor=none;fillColor=none;align=center;verticalAlign=middle;whiteSpace=wrap;rounded=0;" parent="1" vertex="1">
                    <mxGeometry x="150" y="220" width="40" height="20" as="geometry"/>
                </mxCell>
                <mxCell id="159" style="edgeStyle=orthogonalEdgeStyle;rounded=0;orthogonalLoop=1;jettySize=auto;html=1;entryX=0.554;entryY=0;entryDx=0;entryDy=0;entryPerimeter=0;" parent="1" target="137" edge="1">
                    <mxGeometry relative="1" as="geometry">
                        <mxPoint x="360" y="201" as="sourcePoint"/>
                    </mxGeometry>
                </mxCell>
                <mxCell id="161" value="1" style="text;html=1;strokeColor=none;fillColor=none;align=center;verticalAlign=middle;whiteSpace=wrap;rounded=0;" parent="1" vertex="1">
                    <mxGeometry x="80" y="230" width="40" height="20" as="geometry"/>
                </mxCell>
                <mxCell id="164" value="1..20" style="text;html=1;strokeColor=none;fillColor=none;align=center;verticalAlign=middle;whiteSpace=wrap;rounded=0;" parent="1" vertex="1">
                    <mxGeometry x="130" y="36" width="40" height="20" as="geometry"/>
                </mxCell>
                <mxCell id="165" value="2" style="text;html=1;strokeColor=none;fillColor=none;align=center;verticalAlign=middle;whiteSpace=wrap;rounded=0;" parent="1" vertex="1">
                    <mxGeometry x="440" y="270" width="40" height="20" as="geometry"/>
                </mxCell>
                <mxCell id="166" value="1" style="text;html=1;strokeColor=none;fillColor=none;align=center;verticalAlign=middle;whiteSpace=wrap;rounded=0;" parent="1" vertex="1">
                    <mxGeometry x="380" y="201" width="40" height="20" as="geometry"/>
                </mxCell>
                <mxCell id="168" value="" style="endArrow=classic;html=1;shadow=0;fontColor=#f0f0f0;entryX=0.355;entryY=-0.019;entryDx=0;entryDy=0;entryPerimeter=0;" parent="1" target="131" edge="1">
                    <mxGeometry width="50" height="50" relative="1" as="geometry">
                        <mxPoint x="70" y="200" as="sourcePoint"/>
                        <mxPoint x="70" y="240" as="targetPoint"/>
                        <Array as="points">
                            <mxPoint x="70" y="200"/>
                        </Array>
                    </mxGeometry>
                </mxCell>
                <mxCell id="169" value="inscrit" style="text;html=1;strokeColor=none;fillColor=none;align=center;verticalAlign=middle;whiteSpace=wrap;rounded=0;" parent="1" vertex="1">
                    <mxGeometry x="30" y="223" width="40" height="20" as="geometry"/>
                </mxCell>
                <mxCell id="170" value="1" style="text;html=1;strokeColor=none;fillColor=none;align=center;verticalAlign=middle;whiteSpace=wrap;rounded=0;" vertex="1" parent="1">
                    <mxGeometry x="20" y="270" width="40" height="20" as="geometry"/>
                </mxCell>
                <mxCell id="171" value="1..N" style="text;html=1;strokeColor=none;fillColor=none;align=center;verticalAlign=middle;whiteSpace=wrap;rounded=0;" vertex="1" parent="1">
                    <mxGeometry x="11" y="200" width="40" height="20" as="geometry"/>
                </mxCell>
                <mxCell id="174" value="1..N" style="text;html=1;strokeColor=none;fillColor=none;align=center;verticalAlign=middle;whiteSpace=wrap;rounded=0;" vertex="1" parent="1">
                    <mxGeometry x="180" y="200" width="40" height="20" as="geometry"/>
                </mxCell>
            </root>
        </mxGraphModel>
    </diagram>
</mxfile>